<svg xmlns="http://www.w3.org/2000/svg" viewBox="0 0 500 372.61"><defs><style>.cls-1{isolation:isolate;}.cls-2{fill:#ebebeb;}.cls-3,.cls-8{fill:#e6e6e6;}.cls-4{fill:#f0f0f0;}.cls-14,.cls-16,.cls-5{fill:#fafafa;}.cls-6{fill:#fff;}.cls-7{fill:#f5f5f5;}.cls-16,.cls-8{opacity:0.7;}.cls-8{mix-blend-mode:multiply;}.cls-9{fill:#ffc3bd;}.cls-10{fill:#263238;}.cls-11,.cls-13{fill:#407bff;}.cls-11{opacity:0.5;}.cls-12{opacity:0.2;}.cls-14{opacity:0.3;}.cls-15{fill:#ed847e;}</style></defs><g class="cls-1"><g id="Capa_2" data-name="Capa 2"><g id="Background_Complete" data-name="Background Complete"><rect class="cls-2" y="327.45" width="500" height="0.25"/><rect class="cls-2" x="416.78" y="343.54" width="33.12" height="0.25"/><rect class="cls-2" x="322.53" y="346.26" width="8.69" height="0.25"/><rect class="cls-2" x="396.59" y="334.26" width="19.19" height="0.25"/><rect class="cls-2" x="52.46" y="335.94" width="43.19" height="0.25"/><rect class="cls-2" x="104.56" y="335.94" width="6.33" height="0.25"/><rect class="cls-2" x="131.47" y="340.16" width="93.68" height="0.25"/><path class="cls-2" d="M237,282.85H43.91a5.71,5.71,0,0,1-5.7-5.71V5.71A5.71,5.71,0,0,1,43.91,0H237a5.71,5.71,0,0,1,5.71,5.71V277.14A5.71,5.71,0,0,1,237,282.85ZM43.91.25a5.46,5.46,0,0,0-5.45,5.46V277.14a5.46,5.46,0,0,0,5.45,5.46H237a5.47,5.47,0,0,0,5.46-5.46V5.71A5.47,5.47,0,0,0,237,.25Z"/><path class="cls-2" d="M453.31,282.85H260.21a5.72,5.72,0,0,1-5.71-5.71V5.71A5.72,5.72,0,0,1,260.21,0h193.1A5.71,5.71,0,0,1,459,5.71V277.14A5.71,5.71,0,0,1,453.31,282.85ZM260.21.25a5.47,5.47,0,0,0-5.46,5.46V277.14a5.47,5.47,0,0,0,5.46,5.46h193.1a5.47,5.47,0,0,0,5.46-5.46V5.71A5.47,5.47,0,0,0,453.31.25Z"/><rect class="cls-3" x="69.02" y="33.65" width="251.58" height="144.13"/><rect class="cls-4" x="70.77" y="33.65" width="253.57" height="144.13"/><rect class="cls-5" x="131.37" y="-15.83" width="132.36" height="243.1" transform="translate(303.27 -91.84) rotate(90)"/><polygon class="cls-6" points="105.84 171.9 136.59 39.54 176.89 39.54 146.15 171.9 105.84 171.9"/><polygon class="cls-6" points="152.67 171.9 183.41 39.54 201.61 39.54 170.87 171.9 152.67 171.9"/><polygon class="cls-6" points="224.89 171.9 255.63 39.54 286.72 39.54 255.98 171.9 224.89 171.9"/><rect class="cls-3" x="252.59" y="105.39" width="132.36" height="0.67" transform="translate(424.49 -213.05) rotate(90)"/><rect class="cls-4" x="190" y="33.65" width="15.11" height="144.13"/><rect class="cls-3" x="123.48" y="105.39" width="132.36" height="0.67" transform="translate(295.38 -83.95) rotate(90)"/><rect class="cls-3" x="197.29" y="33.65" width="0.53" height="144.13"/><rect class="cls-3" x="208.5" y="234.16" width="21.33" height="93.28"/><polygon class="cls-7" points="220.6 327.45 229.83 327.45 229.83 311.97 210.91 311.97 220.6 327.45"/><rect class="cls-3" x="43.02" y="234.16" width="21.33" height="93.28"/><rect class="cls-7" x="56.29" y="234.16" width="173.54" height="87.96"/><polygon class="cls-7" points="65.53 327.45 56.29 327.45 56.29 311.97 75.22 311.97 65.53 327.45"/><rect class="cls-4" x="63.46" y="241.56" width="159.21" height="32.44"/><path class="cls-6" d="M143.06,267.26a9.48,9.48,0,1,1,9.48-9.48A9.49,9.49,0,0,1,143.06,267.26Zm0-17.95a8.48,8.48,0,1,0,8.48,8.47A8.48,8.48,0,0,0,143.06,249.31Z"/><rect class="cls-4" x="63.46" y="281.84" width="159.21" height="32.44"/><path class="cls-6" d="M143.06,307.54a9.48,9.48,0,1,1,9.48-9.48A9.49,9.49,0,0,1,143.06,307.54Zm0-18a8.48,8.48,0,1,0,8.48,8.47A8.48,8.48,0,0,0,143.06,289.59Z"/><rect class="cls-3" x="251.44" y="258.33" width="70.88" height="69.11" transform="translate(573.76 585.77) rotate(180)"/><rect class="cls-4" x="322.32" y="258.33" width="93.15" height="69.11"/><rect class="cls-8" x="251.44" y="252.44" width="164.03" height="11.46" transform="translate(666.91 516.35) rotate(180)"/><rect class="cls-3" x="247.87" y="251.71" width="74.45" height="6.62" transform="translate(570.18 510.05) rotate(180)"/><rect class="cls-4" x="322.32" y="251.71" width="96.73" height="6.62"/><circle class="cls-3" cx="423.99" cy="302.57" r="24.88" transform="translate(-28.75 560.13) rotate(-65.15)"/><path class="cls-8" d="M418.34,284.23c-2.09.39-3.95-.13-4.14-1.16s1.36-2.17,3.46-2.56,3.95.13,4.14,1.16S420.44,283.84,418.34,284.23Z"/><ellipse class="cls-8" cx="407.4" cy="288.95" rx="3.86" ry="1.89" transform="translate(-84.01 378.33) rotate(-45.65)"/><path class="cls-8" d="M417.17,293.29c-1.7,1.29-3.72,1.49-4.51.45s-.06-2.93,1.64-4.22,3.72-1.49,4.51-.45S418.87,292,417.17,293.29Z"/><rect class="cls-3" x="358.8" y="50.78" width="71.67" height="109.88"/><rect class="cls-7" x="360.47" y="50.78" width="76.07" height="109.88"/><rect class="cls-6" x="348.41" y="72.53" width="100.18" height="66.37" transform="translate(504.22 -292.78) rotate(90)"/><rect class="cls-7" x="395.69" y="84.22" width="5.62" height="43.01" transform="translate(504.22 -292.78) rotate(90)"/><rect class="cls-7" x="395.69" y="70.04" width="5.62" height="43.01" transform="translate(490.05 -306.96) rotate(90)"/><rect class="cls-7" x="395.69" y="55.87" width="5.62" height="43.01" transform="translate(475.87 -321.13) rotate(90)"/><rect class="cls-7" x="395.69" y="98.39" width="5.62" height="43.01" transform="translate(518.39 -278.61) rotate(90)"/><rect class="cls-7" x="395.69" y="112.56" width="5.62" height="43.01" transform="translate(532.57 -264.44) rotate(90)"/></g><g id="Shadow"><ellipse id="_Path_" data-name="&lt;Path&gt;" class="cls-7" cx="250" cy="361.29" rx="193.89" ry="11.32"/></g><g id="Character"><polygon class="cls-9" points="211.75 352.59 219.33 350.5 216.51 332.39 208.93 334.48 211.75 352.59"/><polygon class="cls-9" points="147.26 352.78 155.12 352.78 157.08 334.57 149.22 334.57 147.26 352.78"/><path class="cls-10" d="M155.77,351.87h-9.59a.68.68,0,0,0-.67.54l-1.55,7a1.16,1.16,0,0,0,1.15,1.4c3.08-.06,5.34-.24,9.22-.24,2.39,0,9.6.25,12.9.25s3.73-3.26,2.38-3.56c-6.06-1.32-10.63-3.15-12.56-4.9A1.94,1.94,0,0,0,155.77,351.87Z"/><path class="cls-10" d="M219,349.63l-8.28,2.29a.67.67,0,0,0-.5.69l.36,7.15a1.14,1.14,0,0,0,1.46,1.05c3-.87,7.24-2.24,11-3.27,4.39-1.21,8.25-2,13.39-3.44,3.12-.85,3.11-4.24,1.73-4.16-6.29.33-11.17,1.53-17.16-.22A3.65,3.65,0,0,0,219,349.63Z"/><path class="cls-9" d="M190.28,106.59c.31.37.75.9,1.16,1.35l1.25,1.43c.84.94,1.72,1.87,2.61,2.78,1.79,1.8,3.61,3.57,5.51,5.17,3.75,3.21,7.86,6,11.82,7.19.49.17,1,.26,1.45.39l.71.12c.43.06,0,0,0,.07s.08.06.4,0a7.82,7.82,0,0,0,1.17-.5,22.46,22.46,0,0,0,2.83-1.84c1-.7,2-1.49,2.94-2.32,3.91-3.33,7.8-7.14,11.57-10.9l4.74,3.52a86.64,86.64,0,0,1-9.82,13.93,38.31,38.31,0,0,1-6.81,6.32,18.28,18.28,0,0,1-2.44,1.43,11.3,11.3,0,0,1-3.52,1.06,10.38,10.38,0,0,1-2.08,0l-1.32-.12c-.86-.14-1.73-.26-2.56-.46a28.24,28.24,0,0,1-4.74-1.52,39.62,39.62,0,0,1-4.3-2.06,54,54,0,0,1-7.55-5.11,71.46,71.46,0,0,1-6.56-5.93q-1.53-1.56-3-3.2c-.49-.55-1-1.1-1.44-1.67s-.91-1.12-1.44-1.82Z"/><polygon class="cls-10" points="193.03 130.61 196.09 133.69 210.17 122.41 205.13 118.5 193.03 130.61"/><path class="cls-10" d="M176.53,110c-.58,7.5,16.3,22.8,16.3,22.8l14.92-12.94s-6.29-6.66-13.34-13.35C189.55,101.87,177.16,101.87,176.53,110Z"/><path class="cls-11" d="M176.53,110c-.58,7.5,16.3,22.8,16.3,22.8l14.92-12.94s-6.29-6.66-13.34-13.35C189.55,101.87,177.16,101.87,176.53,110Z"/><path class="cls-12" d="M198,128.29c-.15-.7-.34-1.4-.55-2.09-1.94-6.16-6.37-11.74-13.31-12.37-3.13-.28-4,1.92-3.81,5.15a101.2,101.2,0,0,0,12.5,13.79l1.26-1.09,2,2,2.41-1.93A23.44,23.44,0,0,0,198,128.29Z"/><path class="cls-9" d="M233.07,112.17l2.24-6.6,8.84,2.26a41.9,41.9,0,0,1-6,5.73Z"/><polygon class="cls-9" points="238.81 102.73 246.13 105.27 244.15 107.83 235.31 105.57 238.81 102.73"/><polygon class="cls-12" points="216.51 332.39 217.97 341.73 210.38 343.82 208.93 334.48 216.51 332.39"/><polygon class="cls-12" points="149.21 334.58 157.08 334.58 156.07 343.96 148.2 343.96 149.21 334.58"/><path class="cls-10" d="M144.57,106.35a176.16,176.16,0,0,1,5,25.86c.74,6.1,1.19,11.91,1.47,17.19.65,12.36.38,21.78.75,25l42-2.92c5.72-44.73-5.19-67.78-5.19-67.78a83.65,83.65,0,0,0-10.05-1.24c-.71,0-1.43-.07-2.16-.08a155,155,0,0,0-17.84,1.24c-1.13.13-2.26.3-3.36.47C149.52,105,144.57,106.35,144.57,106.35Z"/><path class="cls-11" d="M144.57,106.35a176.16,176.16,0,0,1,5,25.86c.74,6.1,1.19,11.91,1.47,17.19.65,12.36.38,21.78.75,25l42-2.92c5.72-44.73-5.19-67.78-5.19-67.78a83.65,83.65,0,0,0-10.05-1.24c-.71,0-1.43-.07-2.16-.08a155,155,0,0,0-17.84,1.24c-1.13.13-2.26.3-3.36.47C149.52,105,144.57,106.35,144.57,106.35Z"/><path class="cls-6" d="M184.33,129.48l-9.16.61a.58.58,0,0,1-.59-.47l-.08-.43a.55.55,0,0,0-.85-.37l-4.93,4.07a.51.51,0,0,0,.14.83l6.25,3.32a.46.46,0,0,0,.71-.47l-.08-.43a.45.45,0,0,1,.41-.54l9.16-.61a.45.45,0,0,0,.42-.53l-.8-4.52A.58.58,0,0,0,184.33,129.48Z"/><path class="cls-6" d="M168,127.21l9.16-.62a.58.58,0,0,1,.59.47l.08.43a.56.56,0,0,0,.86.37l4.93-4.07a.51.51,0,0,0-.15-.83l-6.24-3.32a.46.46,0,0,0-.71.47l.07.44a.44.44,0,0,1-.41.53l-9.16.61a.46.46,0,0,0-.42.54l.81,4.51A.57.57,0,0,0,168,127.21Z"/><path class="cls-10" d="M158.49,103.59a155.11,155.11,0,0,1,17.84-1.24c.73,0,1.46,0,2.17.08l.25,0c1.27,2.63,2.92,10.45-2.93,11.26-7.94,1.1-16.92-5.75-20.69-9.64C156.23,103.89,157.37,103.72,158.49,103.59Z"/><path class="cls-12" d="M155.17,117.66a33.05,33.05,0,0,1-5.2,18.18c-.11-1.19-.25-2.4-.4-3.62-.56-4.58-1.28-9.32-2.24-14.11Z"/><path class="cls-9" d="M158.87,83.38c1.52,5.66,3.38,16.1-.37,20.21a17.91,17.91,0,0,0,14.13,4.51c4.93-.45,4.94-3.92,3.71-5.76-6.51-1.08-6.68-5.84-5.87-10.37Z"/><path class="cls-12" d="M163.6,86.89,170.46,92a18.7,18.7,0,0,0-.33,3.21c-2.47-.19-6-2.64-6.45-5.18A8.44,8.44,0,0,1,163.6,86.89Z"/><path class="cls-10" d="M187.73,53.48c2.91,6.11-8.52,21-17.85,19.37A155.39,155.39,0,0,1,154.26,69c-4.53-1.31-6.19-7.29-1.88-8C167,58.38,182.91,43.32,187.73,53.48Z"/><path class="cls-9" d="M157.58,74.79c1,7.74,1.22,12.32,5.43,16,6.32,5.58,15.66,1.36,17-6.53,1.19-7.1-.68-18.56-8.5-21.12A10.65,10.65,0,0,0,157.58,74.79Z"/><path class="cls-10" d="M172.64,84.69h0a5.75,5.75,0,0,1-4.88-2,.2.2,0,0,1,0-.28.19.19,0,0,1,.28,0,5.45,5.45,0,0,0,4.54,1.83.2.2,0,0,1,.21.19A.19.19,0,0,1,172.64,84.69Z"/><path class="cls-10" d="M163,78.3c2.93-6.39,3.56-12.91-1.8-14.91s-9.86.68-11.35,4.71S158.74,87.6,163,78.3Z"/><path class="cls-10" d="M156.93,66.12c5.38,3.86,23.82,4.09,21.22-2.83C176.2,58.11,163.39,58.27,156.93,66.12Z"/><path class="cls-9" d="M154.67,83.6a7.42,7.42,0,0,0,4.84,3c2.57.38,3.53-2,2.55-4.26-.89-2-3.3-4.68-5.75-4A3.32,3.32,0,0,0,154.67,83.6Z"/><path class="cls-13" d="M220.32,339.19l-12.83,3.53s-16.08-50.67-20-78.5c-1.05-7.38-2.66-17.76-5.13-28.82-3.11-13.94-7-29-10.22-40.8-3.38-12.43-6-21.23-6-21.23l27.59-1.92s14.92,65.09,16.51,89C211.9,285.39,220.32,339.19,220.32,339.19Z"/><path class="cls-14" d="M220.32,339.19l-12.83,3.53s-16.08-50.67-20-78.5c-1.05-7.38-2.66-17.76-5.13-28.82-3.11-13.94-7-29-10.22-40.8-3.38-12.43-6-21.23-6-21.23l27.59-1.92s14.92,65.09,16.51,89C211.9,285.39,220.32,339.19,220.32,339.19Z"/><path class="cls-12" d="M182.33,235.4c-3.11-13.94-7-29-10.22-40.8l2.86-6.17C181.81,196.56,183.65,221.73,182.33,235.4Z"/><path class="cls-13" d="M178.87,172.49s-3,67.32-6.3,90.12c-3.64,25-12.87,79.54-12.87,79.54H145.3s-.24-51.74,4.27-75.93c5.14-27.55,2.22-91.84,2.22-91.84Z"/><path class="cls-14" d="M178.87,172.49s-3,67.32-6.3,90.12c-3.64,25-12.87,79.54-12.87,79.54H145.3s-.24-51.74,4.27-75.93c5.14-27.55,2.22-91.84,2.22-91.84Z"/><polygon class="cls-13" points="161.43 342.46 144.47 342.46 144.47 337.39 163.42 337.06 161.43 342.46"/><polygon class="cls-13" points="221.21 339.27 206.72 343.26 204.63 338.27 221.15 333.69 221.21 339.27"/><path class="cls-10" d="M169.52,76.14c0,.64.41,1.13.83,1.1s.71-.57.67-1.2-.42-1.12-.83-1.09S169.47,75.51,169.52,76.14Z"/><path class="cls-10" d="M176.67,75.64c0,.64.41,1.13.83,1.1s.71-.57.67-1.2-.42-1.12-.83-1.09S176.63,75,176.67,75.64Z"/><path class="cls-15" d="M174.42,76.12a22.57,22.57,0,0,0,3.4,5.2c-1,1.12-3.08.62-3.08.62Z"/><path class="cls-10" d="M167.14,74a.39.39,0,0,0,.35-.17,3,3,0,0,1,2.29-1.41.36.36,0,0,0,.37-.37.35.35,0,0,0-.37-.37,3.71,3.71,0,0,0-2.92,1.74.38.38,0,0,0,.11.52A.49.49,0,0,0,167.14,74Z"/><path class="cls-10" d="M179.56,73a.38.38,0,0,0,.37-.56,3.7,3.7,0,0,0-2.82-1.9.36.36,0,0,0-.39.35.38.38,0,0,0,.35.39h0a3,3,0,0,1,2.21,1.53A.36.36,0,0,0,179.56,73Z"/><path class="cls-13" d="M158.37,353.25a2.35,2.35,0,0,0,1.51-.41,1.13,1.13,0,0,0,.39-1,.61.61,0,0,0-.32-.53c-.87-.45-3.41,1.12-3.69,1.29a.19.19,0,0,0-.09.19.17.17,0,0,0,.14.15A9.38,9.38,0,0,0,158.37,353.25Zm1.17-1.63a.57.57,0,0,1,.24,0,.24.24,0,0,1,.12.22.76.76,0,0,1-.26.68c-.43.36-1.45.41-2.79.14A7.56,7.56,0,0,1,159.54,351.62Z"/><path class="cls-13" d="M156.36,353l.08,0c.82-.45,2.39-2.17,2.22-3.05,0-.16-.14-.43-.59-.48a1,1,0,0,0-.79.24c-.91.74-1.1,3-1.11,3.11a.19.19,0,0,0,.08.17A.2.2,0,0,0,156.36,353Zm1.58-3.19H158c.24,0,.26.14.27.18.1.52-.9,1.82-1.71,2.44a4.51,4.51,0,0,1,.92-2.47A.68.68,0,0,1,157.94,349.78Z"/><path class="cls-13" d="M220.06,350.48h0c1.29-.1,3.54-.4,4.17-1.36a1.07,1.07,0,0,0,.1-1,.6.6,0,0,0-.43-.39c-1.06-.25-3.69,2.12-4,2.39a.19.19,0,0,0-.05.21A.2.2,0,0,0,220.06,350.48Zm3.74-2.37h0a.22.22,0,0,1,.16.16.66.66,0,0,1,0,.63c-.35.55-1.58,1-3.33,1.15C221.68,349.14,223.18,348,223.8,348.11Z"/><path class="cls-13" d="M220.06,350.48a.19.19,0,0,0,.14-.05c.8-.66,2.17-2.8,1.79-3.62-.09-.19-.3-.4-.81-.31a1.37,1.37,0,0,0-.91.58c-.74,1.06-.38,3.15-.37,3.24a.2.2,0,0,0,.12.15Zm1.4-3.63c.15,0,.18.09.19.12.23.49-.65,2.12-1.43,2.94a4.37,4.37,0,0,1,.36-2.62,1,1,0,0,1,.67-.43Z"/><path class="cls-10" d="M144.43,171.83h0a3.4,3.4,0,0,0-2.81-3.27l-23.4-2.64a3.54,3.54,0,0,0-3.64,3.39l-6.86,60.79a3.55,3.55,0,0,0,2.79,4.12l74.27,8.38a3.54,3.54,0,0,0,3.63-3.4l5.77-51a3.54,3.54,0,0,0-2.79-4.12L151,179.47C147.48,179.07,144.76,175.9,144.43,171.83Z"/><path class="cls-13" d="M154.3,185.15h0a2.58,2.58,0,0,0-2.35-2.89l-23.4-2.64a4.16,4.16,0,0,0-4.22,2.91l-14.8,48.19a2.67,2.67,0,0,0,2.21,3.64L186,242.74a4.17,4.17,0,0,0,4.22-2.91l12.2-39.73a2.66,2.66,0,0,0-2.21-3.63l-40.41-4.56A6.06,6.06,0,0,1,154.3,185.15Z"/><path class="cls-9" d="M153.05,117.87,150.84,121c-.75,1.08-1.48,2.17-2.2,3.28-1.44,2.19-2.83,4.42-4.19,6.66s-2.59,4.52-3.77,6.79-2.2,4.59-3.05,6.88l-.08.2,0,.09a1.22,1.22,0,0,1-.07.17c0,.18-.09.33-.13.55-.07.42-.12.92-.17,1.46a27.62,27.62,0,0,0,0,3.52c.14,2.48.42,5.1.81,7.71.75,5.24,1.74,10.62,2.75,15.91l-5.6,1.86a115.65,115.65,0,0,1-5.93-15.86,72.09,72.09,0,0,1-2-8.52,37.5,37.5,0,0,1-.49-4.69,21.79,21.79,0,0,1,.06-2.65c0-.47.12-1,.19-1.48l.19-.83.1-.41.08-.29a79.79,79.79,0,0,1,6.83-16.25q2.07-3.78,4.4-7.38c.78-1.2,1.57-2.39,2.39-3.56s1.64-2.3,2.59-3.54Z"/><polygon class="cls-10" points="132.3 124.94 129.77 128.46 143.21 140.49 146.24 134.88 132.3 124.94"/><path class="cls-10" d="M144.57,106.35c-7.37,1.48-13.83,19.51-13.83,19.51l15.38,12.53s5-9.16,9.07-18C159.58,110.76,153.5,104.55,144.57,106.35Z"/><path class="cls-11" d="M144.57,106.35c-7.37,1.48-13.83,19.51-13.83,19.51l15.38,12.53s5-9.16,9.07-18C159.58,110.76,153.5,104.55,144.57,106.35Z"/><path class="cls-9" d="M139.89,172.71l5.31,6-9.61,2.94s-3.39-6.08-.37-8.24Z"/><polygon class="cls-9" points="145.65 185.22 137.6 187.28 135.59 181.61 145.2 178.67 145.65 185.22"/></g><g id="Folder"><path class="cls-10" d="M325.79,78.28h0a3.39,3.39,0,0,0-3.47-2.56l-23.4,2.69a3.54,3.54,0,0,0-2.78,4.12l7,60.77a3.53,3.53,0,0,0,3.64,3.39L381,138.17a3.55,3.55,0,0,0,2.78-4.13l-5.86-51a3.54,3.54,0,0,0-3.64-3.39l-40.4,4.64C330.39,84.65,327,82.17,325.79,78.28Z"/><path class="cls-13" d="M337,56.13a423.92,423.92,0,0,1,9.88,68.81q-27.68,3.3-55.35,5.18a367.29,367.29,0,0,0-11.94-74.87Q299.18,50,318.58,44,327.9,49.77,337,56.13Z"/><path class="cls-16" d="M337,56.13a423.92,423.92,0,0,1,9.88,68.81q-27.68,3.3-55.35,5.18a367.29,367.29,0,0,0-11.94-74.87Q299.18,50,318.58,44,327.9,49.77,337,56.13Z"/><path class="cls-13" d="M333.89,67.72q-21.63,5.43-43.39,10a1.16,1.16,0,0,1-1.36-.93h0a1.18,1.18,0,0,1,.89-1.4q21.74-4.66,43.33-10.21a1.17,1.17,0,0,1,1.39,1h0A1.32,1.32,0,0,1,333.89,67.72Z"/><path class="cls-13" d="M335.45,75.84q-21.74,5-43.57,9.13a1.17,1.17,0,0,1-1.35-1h0a1.19,1.19,0,0,1,.92-1.38q21.81-4.25,43.52-9.39a1.17,1.17,0,0,1,1.37,1h0A1.33,1.33,0,0,1,335.45,75.84Z"/><path class="cls-13" d="M336.85,84q-21.83,4.61-43.74,8.3a1.16,1.16,0,0,1-1.33-1h0a1.19,1.19,0,0,1,1-1.38q21.88-3.83,43.69-8.56a1.18,1.18,0,0,1,1.35,1.06h0A1.33,1.33,0,0,1,336.85,84Z"/><path class="cls-13" d="M338.09,92.25q-21.91,4.19-43.9,7.47a1.17,1.17,0,0,1-1.31-1h0a1.2,1.2,0,0,1,1-1.36q22-3.42,43.85-7.74A1.17,1.17,0,0,1,339,90.7h0A1.34,1.34,0,0,1,338.09,92.25Z"/><path class="cls-13" d="M321.67,103.38q-13.26,2.06-26.54,3.78a1.17,1.17,0,0,1-1.29-1h0a1.23,1.23,0,0,1,1-1.35q13.26-1.8,26.51-3.94a1.19,1.19,0,0,1,1.31,1.09h0A1.29,1.29,0,0,1,321.67,103.38Z"/><path class="cls-13" d="M337,56.13q-7.21,2-14.46,4-1.83-8.12-4-16.11Q327.9,49.77,337,56.13Z"/><path class="cls-13" d="M338.41,89h0a2.6,2.6,0,0,0-2.94-2.29l-23.4,2.69a4.17,4.17,0,0,0-3.46,3.78L305,143.51a2.66,2.66,0,0,0,3,3L382.23,138a4.17,4.17,0,0,0,3.46-3.79l3-41.44a2.66,2.66,0,0,0-3-3l-40.4,4.64A6,6,0,0,1,338.41,89Z"/><path class="cls-13" d="M281.57,128.05q-3.12,31.08-7.68,61.83-27.37-4.33-54.78-8.39,5.44-36.87,8.76-74.28Q248,109,268.18,111,274.93,119.45,281.57,128.05Z"/><path class="cls-16" d="M281.57,128.05q-3.12,31.08-7.68,61.83-27.37-4.33-54.78-8.39,5.44-36.87,8.76-74.28Q248,109,268.18,111,274.93,119.45,281.57,128.05Z"/><path class="cls-13" d="M275.12,136.83q-22-2.6-44.13-5a1.17,1.17,0,0,1-1-1.29h0a1.14,1.14,0,0,1,1.27-1q22.08,2.37,44.14,4.94a1.21,1.21,0,0,1,1,1.34h0A1.17,1.17,0,0,1,275.12,136.83Z"/><path class="cls-13" d="M274.29,144.32q-22-2.73-44.1-5.27a1.17,1.17,0,0,1-1-1.29h0a1.18,1.18,0,0,1,1.28-1q22.07,2.51,44.11,5.19a1.2,1.2,0,0,1,1,1.34h0A1.17,1.17,0,0,1,274.29,144.32Z"/><path class="cls-13" d="M273.42,151.8q-22-2.85-44.07-5.51a1.18,1.18,0,0,1-1-1.3h0a1.18,1.18,0,0,1,1.29-1q22,2.63,44.08,5.43a1.21,1.21,0,0,1,1,1.35h0A1.18,1.18,0,0,1,273.42,151.8Z"/><path class="cls-13" d="M272.51,159.27q-22-3-44-5.76a1.16,1.16,0,0,1-1-1.3h0a1.16,1.16,0,0,1,1.29-1q22,2.75,44.05,5.67a1.21,1.21,0,0,1,1,1.35h0A1.18,1.18,0,0,1,272.51,159.27Z"/><path class="cls-13" d="M254.07,164.3q-13.26-1.83-26.52-3.57a1.16,1.16,0,0,1-1-1.31h0a1.15,1.15,0,0,1,1.29-1q13.28,1.72,26.52,3.52a1.18,1.18,0,0,1,1,1.33h0A1.18,1.18,0,0,1,254.07,164.3Z"/><path class="cls-13" d="M281.57,128.05l-14.85-1.64q.78-7.69,1.46-15.41Q274.93,119.45,281.57,128.05Z"/></g></g></g></svg>